<svg xmlns="http://www.w3.org/2000/svg" viewBox="0 0 2400 2400" width="2400" height="2400"><path d="M655.4 0L683.3 16.5L713.4 31L739.9 40.8L767.9 48L795 52L823 53.8L851 53.9L933 51.8L959 52.4L981 54L1007 57.5L1030.7 62.7L1053 69.6L1074.1 78.3L1095.9 89.8L1118.9 105.4L1137.8 121.3L1159.8 144.1L1172.9 160.5L1187.1 181.1L1201.9 206L1230.9 259.1L1239.9 272.1L1247.6 280.6L1256.3 287.7L1269 294L1279.6 296.9L1293 298.1L1313.2 296.4L1337 290.7L1361 282.6L1441 253.1L1471 244.3L1501 237.5L1536.1 232L1569 228.9L1603 227.3L1669 226L1696.7 224.1L1723 219.2L1734.7 215.1L1744.3 210.4L1758.3 200L1767.2 190.4L1776.3 176.8L1784.3 160.4L1792.2 139.5L1800 113.5L1829.4 0M2400 431.9L2387.1 493L2377.5 533L2368 565.9L2359 590.6L2348.9 613L2337.7 633.7L2324.2 655.1L2280 720L2264.8 746.6L2254.5 767.8L2241.7 798.7L2231.7 827.2L2220.2 865L2190.8 969.3L2181.3 999L2171.8 1025L2158.6 1055.9L2142.8 1086.7L2127.3 1112.4L2091.4 1166.8L2077.7 1191.5L2071.3 1206.8L2066.6 1223L2063.9 1239.3L2063.1 1255L2065.2 1285L2075.4 1349L2078.9 1377L2081.4 1407L2084.3 1461L2086.8 1483L2089.7 1497.1L2095.1 1513.2L2102.2 1526.6L2108.1 1535L2119.4 1547.7L2134.3 1560.8L2155.3 1575.7L2182.6 1592.5L2239.4 1624.2L2313.9 1663.4L2361.6 1686.7L2400 1703.6M782.1 463.7L763 466.9L744.1 473.3L726.7 482.5L705.4 497.8L688.5 512.8L671.9 529.7L599.7 613.1L568 646.1L551.5 660.9L534.6 674.4L513 689.1L494.8 699.6L477 708.5L455.2 717.7L433.1 725.5L409 732.6L379 739.9L345 746.6L257.8 760.2L215.3 767.9L194.3 775.5L188.1 781.3L185.2 787L184.7 793L185.7 801L189.1 813L219.6 889L243 943.1L255.7 968.3L270.8 993L288.7 1015.5L305.3 1031.3L325 1045.5L344 1056L366.1 1065.1L393.2 1073.3L425.2 1079.7L455 1083.1L489 1084.3L521 1082.9L547.1 1079.8L574.9 1073.9L598.8 1066.3L618.1 1057.8L637.2 1046.9L656.4 1032.6L672.7 1017.3L688.1 1000.1L712.2 968.4L807.9 831.7L831.4 795L846.7 768.1L865.6 730.1L884 685L897.6 643L907.4 601L909.8 585L911.1 569L910.9 555L909.5 543L906.4 531L902.7 521.7L896.7 511.5L889.7 503L881.5 495.2L872 488L856.8 479.3L839.9 472.1L825 467.7L809.3 464.6L795 463.4L782.1 463.7ZM0 804.3L19 796L39 788.7L110.3 766.7L121.1 761.2L123.8 758.8L128.3 752.3L128.8 745.3L126.5 734.8L120 720L110.2 702.6L95.9 680.1L59.5 629.1L0 551M944.6 2400L941.5 2389L936.2 2375.8L927.5 2360.5L917.3 2346.2L893.6 2318.8L827.6 2253.8L800.2 2223.8L788.5 2208.6L777.6 2192L769.2 2176L763 2161L757 2141L753.2 2121L751 2097L750.8 2071L752 2048.4L754.9 2021L769.2 1927L770.6 1909L770.5 1893L768.6 1878.4L763.4 1863.2L759.7 1856.3L753.3 1848.3L744.1 1839.9L729.3 1830.9L707 1821.8L682.7 1814.9L647.8 1808L609 1802.8L567 1798.6L517 1795.3L469 1793.5L399 1793.7L333 1797.5L305.1 1800.2L267 1805.3L179 1820.5L152.1 1824.4L123 1826.6L99 1825.7L82.9 1823L69 1818.9L56.6 1813.5L42.6 1805L32.5 1796.9L21.5 1785.7L9 1769.8L0 1756M579.2 2400L591.6 2388.7L602.1 2376L611 2360.7L617.7 2342.8L621.3 2325L622.4 2305L620.8 2285L616.3 2264.4L610.2 2247.5L602.5 2231.7L592.3 2215.7L579.6 2199.5L565.3 2184.3L547.3 2167.7L527.9 2152L505 2135.6L480.6 2119.8L453.7 2104.1L424.3 2088.6L397 2075.7L366.6 2062.8L337 2051.7L309 2042.5L277 2033.5L227 2022.8L183 2016.9L137 2014.4L47 2014.5L23 2012.5L0 2008.2M2400 2215L2375 2215L2349 2213.8L2321 2211.1L2289 2206.9L2229 2197L2065 2166.7L2009 2157.9L1957 2151.4L1911 2147.9L1869 2147.2L1831 2149.5L1797 2154.5L1773.3 2159.9L1746.7 2168.1L1722.2 2177.5L1697.2 2188.8L1670.7 2202.4L1640.9 2219.5L1608.4 2240.2L1585.1 2256.5L1559.3 2276.2L1536.1 2296.1L1519.7 2311.8L1504.5 2328.3L1491.3 2344.6L1480.4 2360.4L1469.7 2379L1460.1 2400M487.2 0L608.2 77.7L646.7 101.2L665.1 111.1L681.7 118.8L697 124.7L713.3 129.2L727 131.6L739 132.5L753 132.4L767 131.1L795 126.1L854.8 111.6L889.3 104.4L921 99.9L951 98L985 99.4L1014.9 104.4L1040.2 111.9L1067 124.1L1080.8 132.4L1095.6 143.2L1114.7 161.2L1126.8 175.8L1133.9 186L1142.9 201.4L1149.9 216.6L1158.2 241L1163.7 269L1165.9 299L1165.6 357L1167.6 370.8L1171.9 381L1174.4 385.1L1178.4 388.8L1183.1 392.3L1189 394.8L1203 398.4L1219 399.4L1235 398.5L1253 396L1272.1 392L1291 386.8L1335 371.4L1421.5 334.3L1457.3 320.7L1478.9 314.1L1501 308.6L1520.9 305L1543 302.3L1567 301.2L1591 301.7L1616.3 303.9L1643 308.1L1689.5 319.3L1775.3 345.6L1806.5 352.4L1821 353.3L1831.9 352.4L1839.4 350.3L1846.6 346.6L1850.2 343.9L1856.9 335.8L1862.1 323L1865 309L1866.7 285L1867 215L1868.4 179L1871.8 143L1877.6 107L1884.7 77L1893.6 49.2L1904 24L1916.9 0M2305.2 0L2318.8 19L2330.6 37.4L2341.4 56.6L2350.2 74.4L2358.7 94.6L2365.2 113L2370.9 133L2375.2 152.4L2378.5 173L2380.5 193L2381.4 215L2381 237L2376.9 280.8L2372.8 305L2367.9 327.7L2357.6 365L2344.1 403L2327.9 439.5L2312.3 467.8L2296.4 492L2279.8 513.3L2263.3 531.8L2227.2 568.5L2212.6 585.1L2200.7 602.1L2190.8 622.2L2183.2 646L2177.6 675L2163.6 795L2154.3 857L2144.7 904.1L2132.7 949L2117.1 993.1L2098.1 1034.3L2076.8 1071.4L2031.8 1140.8L2016.8 1169L2010.6 1185L2006.4 1201.1L2004.3 1217L2004.3 1233L2005.7 1247L2008.5 1262.6L2028 1337L2032.3 1359L2034.9 1379L2036.2 1405L2035.3 1431L2032.6 1456.3L2025.4 1505L2024.1 1527L2025.1 1539L2027.5 1549L2032 1560L2037.4 1568.1L2044.6 1576.4L2054.2 1584.8L2064.2 1591.9L2080 1601.4L2108 1615.7L2189 1653.2L2249.2 1682.7L2311.3 1715.1L2400 1763.3M1089.7 2400L1065.7 2376.1L1038.8 2351.8L944.2 2273.6L914.5 2247.9L888.9 2223.4L866.1 2198.4L855.2 2184.6L843.3 2167.2L833.5 2150.2L825.7 2133.4L819.1 2115L814.5 2097L811.5 2079L810.1 2061L810.4 2037L813 2013L818.1 1987L825.1 1962.1L834.5 1936.8L846.5 1910.3L857.8 1889.8L873 1866.3L887.8 1847.5L903.5 1831.1L918.6 1818.3L930.1 1810.1L944.2 1801.7L960.3 1793.7L1024.2 1768.1L1041.3 1760.3L1056.2 1752.1L1065.5 1744.7L1072.4 1736.3L1074.3 1727L1072.6 1719.5L1065.5 1711.4L1052.4 1703.7L1035 1699L1017 1697.6L999 1699.3L982.1 1703.1L967 1708.2L895 1740.2L875 1747.4L857.1 1752.5L833 1757.7L803 1762L771 1764.8L735 1766.5L673 1767.2L597 1765.7L345 1755L289 1751.5L251 1748.1L217.7 1743.5L189 1737.7L167 1731.4L147 1723.7L127.8 1714.1L112.1 1704L96.9 1691.7L85.1 1680.3L71.7 1664.6L60.5 1648.7L49.5 1630.4L37.8 1606.7L28.1 1583L19.5 1557L12.3 1529L7.1 1502.7L3.4 1475L1.6 1449L1.9 1411L5.6 1373L12.2 1335L30.7 1249.1L35.7 1211L36.2 1187L34.1 1165L30.5 1147L18.1 1101L15.9 1088.2L15.3 1077L15.9 1063.6L19.9 1047L24.5 1036.4L33 1024.6L41.7 1017.6L46.7 1015L53 1013.1L63 1012.3L74.4 1014.5L85 1019.5L95.6 1026.8L134.6 1063.8L149.2 1075.5L168.7 1087.8L185.4 1095.6L208.4 1103.9L240.3 1112.3L280.7 1119.9L329 1126.2L389 1131.4L453 1134.3L511 1134.5L561 1132.1L599.9 1128L640.3 1120.1L670 1110.7L685.7 1103.9L697.7 1097.6L714.1 1087L733.6 1070.6L751.2 1051.2L767.1 1029.7L784.2 1002.8L807.9 961.7L855.7 876.6L879.7 831.1L901.9 785.3L920 744.1L967.6 627.2L1008.7 529L1014.5 511.2L1017.4 495L1016.7 481.4L1013.6 472.7L1007.7 464.2L1001.3 458.6L984.3 447.9L948.3 432.2L831 386.6L801.3 377L779 372.5L759 371.7L741.3 374.7L727 380.1L714.8 387.1L703.2 395.7L688 409.9L663.3 438.6L601.7 521.4L570.3 560.1L553.5 578.6L537.5 594.3L520.8 609L503.9 622L483 635.7L463.7 646.1L440.5 656.4L421.8 662.9L399 669L373 673.8L349 676.4L323 677.1L301 676L281 673.7L259 669.5L239.6 664.2L221.2 657.9L199.5 648.4L178.8 637.4L159.1 625L139 610.5L118.6 594L97 574.4L75.6 552.8L54.1 529.3L33.3 504.2L15.3 480.6L0 458.6M1597.6 1646.9L1583 1652.5L1570.9 1659.3L1558.6 1669.6L1551 1679.2L1547.1 1689L1546.4 1695L1546.8 1699L1550.5 1707.4L1553.6 1711L1557.9 1714.2L1568.4 1718.8L1577.3 1720.6L1592.2 1720.5L1605 1717.7L1618 1712.6L1631.8 1703.9L1640.2 1696.1L1647.2 1687.1L1651.1 1678.8L1653.1 1669L1651.7 1661L1649 1655.4L1646.6 1653.2L1639.9 1648L1627 1644.6L1613 1644.2L1597.6 1646.9ZM437.8 2400L457.1 2388.2L474.9 2375.1L490.8 2360.2L503.9 2343.9L512.6 2328.7L519.4 2310.6L522.9 2291L522.9 2273L520.2 2255.6L514.3 2237L504 2216L492.6 2198.9L473 2176.4L455.7 2160.4L434.2 2144L415.1 2131.5L393.1 2119.1L369 2107.6L343.7 2097.4L317.7 2089L291 2082.4L265 2077.8L239 2075L213 2074.2L189 2075.2L167 2077.5L143 2081.6L118.7 2087.4L94 2094.9L67.8 2104.2L0 2133.1M2400 2145.1L2368.2 2151.7L2337 2155.2L2303 2156.3L2263 2155L2213 2150.5L2157 2143.2L1947 2108.6L1873 2098.8L1832.4 2096L1802.2 2096.1L1773 2098.7L1744.5 2104.2L1725 2110L1705.2 2117.6L1686.3 2126.5L1664.4 2138.6L1640 2153.8L1614.7 2171L1545.4 2221.9L1483.5 2271.3L1437.6 2311.9L1396.8 2353.1L1377 2375.7L1357.2 2400M2013 0L1999.9 9.6L1984 24L1976.3 32.6L1966 46.2L1956.8 61L1948.7 77L1942.2 93.1L1936.4 111.8L1932.1 131L1929.4 149L1927.9 168.1L1927.6 189L1928.7 209L1931 229L1934.6 248.8L1939.5 269L1945.8 289.2L1954.2 311.4L1964.2 333L1974.4 352L1984.1 367.9L1998.2 387.9L2008 400L2023.6 416.7L2038.6 430.1L2049.5 438.4L2064.4 447.7L2079.8 455.3L2095 460.8L2111.6 464.9L2127 467.2L2143 467.9L2159 467.1L2176 464.6L2193 460.3L2208 454.9L2223.5 447.5L2238.5 438.4L2251 428.9L2264.8 416.5L2279.7 399.8L2288.4 388L2300.2 369.1L2309.4 351.3L2318.7 329.4L2324.9 311L2330.3 291L2334.5 269L2337 249L2338.1 229L2337.8 209L2336.3 190.7L2333.2 171L2328.9 151.9L2323 133L2315.8 115L2306.4 95.6L2296.7 79.3L2286.8 64.9L2272.7 47.5L2261.7 35.8L2247.7 22.8L2231.8 10.3L2216.1 0M0 370L13.1 398.8L27.5 425.2L46.5 454.5L65 479.3L87.3 505.3L111.1 529.5L136.3 551.7L160.1 569.7L184.2 585.2L209.6 598.7L237 610.2L263 618.3L289 623.8L315 626.7L341 627.1L368.6 624.8L393 620.2L417 613.2L441 603.5L463.5 591.5L486.4 576.1L504.8 561.2L523.6 543.1L544 520.1L563.3 494.7L583.7 463.7L602.7 430.7L621.3 393.2L635.9 359L646.2 329.2L652.6 303L654.7 279L653.4 263L649.7 247.5L643.2 231.2L633.7 214.5L618.3 193.4L602.9 175.7L580.8 153.8L560.3 135.9L535.1 116L505.7 95.3L479.8 79L449.9 62.3L423.8 49.6L395 37.6L369 28.7L343 21.6L318.2 16.5L289 12.4L263 10.6L235 10.3L207 11.7L181 14.6L153 19.5L128.7 25.6L105.8 33.1L86.6 41.2L65.2 52.7L48.4 64.2L34.6 76L23.4 87.6L10.4 104.3L0 121.4M925.3 143L911 146.6L894.3 152L876.3 159.7L861.2 167.9L848.5 176.2L837.3 185L822.9 199.3L816 208L810.7 216.7L806 227L803.2 237L802.2 247L802.9 257L805.5 267L810 277.5L816.1 287.9L827.3 301.8L837.5 312.1L854.6 326.2L867.9 335.6L882.9 344.6L901.5 354L918.3 361.1L937.1 367.5L957 372.5L974.9 375.3L991 376.5L1008.5 376.1L1025 373.7L1038.8 370L1051 365.1L1062.7 358.6L1072 352L1080.2 344.4L1087.9 335.8L1094.4 326.5L1104.1 307.2L1109.9 287L1111.6 275L1112 263.9L1109.8 243L1104.3 223.6L1093.6 202.3L1079.7 184.2L1063.1 169.1L1045 157.5L1023 147.8L999 141.5L975 138.9L951 139.3L925.3 143ZM1501.1 375L1473.1 381.8L1440.4 392.2L1317.6 439.5L1207 477L1169 491.6L1143.7 503.7L1118.9 518.7L1096.2 536.2L1073.4 558.3L1052.4 583.3L1032.5 612.3L1013.5 645.2L995.7 681L965.4 751.2L848 1039.8L832.5 1073.8L820.4 1095.1L808.2 1112.1L792.4 1128.2L780 1137.6L768.9 1144.3L759 1149L735 1157.6L707 1163.9L672.6 1168.5L639 1170.9L599 1172.4L449 1173.6L395 1174.9L343 1178.1L301.6 1183.3L281 1187.3L263.4 1191.7L247 1197L230.9 1203.5L216.6 1210.7L201.2 1220.3L189.7 1228.9L177.4 1239.8L160.8 1257.6L144.1 1280.1L129 1305.1L115.1 1333L104.1 1360.2L94.4 1391.3L87.5 1422.4L84 1449L82.9 1477L84.4 1503L88.1 1527.7L94.8 1554.1L103.3 1576.9L114.7 1599.5L128.4 1620.4L143.8 1638.6L160.1 1653.8L174.4 1664.7L191.3 1675.3L209 1684.5L229 1692.9L251 1700.5L275 1707.2L301 1713L331 1718.4L369 1723.8L453 1731.7L541 1735.7L583.5 1736L619 1735.1L669 1731.7L715 1725.3L755 1716L790.9 1703.7L819 1691L850.6 1673L876.6 1655.7L935.7 1613.3L965 1595L981 1587L995 1581.4L1010.3 1576.9L1025 1574.2L1037 1573.2L1051 1573.2L1065 1574.4L1081.2 1577L1112 1584.8L1189 1610.1L1221 1619.2L1257 1625.9L1289 1627.9L1307 1627.1L1323 1625.1L1341 1621.5L1359.6 1616.3L1393 1603.9L1473 1568.3L1514.2 1552L1537.9 1544.3L1561 1538.2L1581 1534.1L1603 1531L1625 1529.8L1645 1530.3L1665 1532.3L1687.1 1536.3L1719.9 1545L1825 1579.1L1851 1585.5L1865 1587.8L1879 1588.2L1890.9 1585.9L1904.5 1579.5L1920.3 1566.9L1935.5 1551.2L1944.6 1540.5L1959.9 1519.8L1969.1 1505.2L1978.2 1488.4L1986.7 1469L1993.1 1450.2L1997.5 1431L1999.8 1414.5L2000.6 1397L1999.7 1378L1997.4 1361L1993.5 1343.3L1988.1 1325L1968.2 1271.7L1960.2 1247.4L1955.7 1223L1955.1 1211L1955.8 1199L1958 1185.1L1961.2 1173L1966.7 1158.1L1974.2 1141.9L1991.4 1111.5L2036.7 1039.2L2048.9 1017L2059.7 995L2075.8 955L2088.2 912.5L2094.3 883L2098.7 851L2101 819L2101.1 789L2099.2 759L2095.2 730.6L2089.3 703.5L2081.9 679.4L2070 650.5L2056.2 625.1L2040 602L2024.1 583.9L2007.5 568.3L1985 550.9L1960.7 535.3L1929.9 518.3L1728.9 415.2L1690.9 398L1659 386L1639 379.9L1618.7 375L1599 371.6L1579 369.5L1561 368.9L1541 369.5L1521 371.6L1501.1 375ZM2400 1822.4L2372.7 1801.4L2348.3 1784.4L2321.9 1767.3L2289.2 1747.8L2255.9 1729.5L2225.3 1714L2193.2 1698.9L2162.8 1686.1L2133 1674.5L2096.8 1662L2063 1651.7L2027 1642L1977 1630.1L1951.3 1624.9L1925 1621.1L1907 1621.3L1891 1626L1880.2 1632.1L1863.6 1644.6L1840.1 1666.1L1816.1 1690.2L1792.5 1715.6L1719.5 1799.1L1703.8 1815.6L1688.1 1830.3L1673.5 1841.8L1664 1848L1648.2 1856.1L1633 1861.3L1617.2 1864.3L1603 1865.2L1585.1 1864.7L1567 1862.6L1526.8 1854.5L1427 1828.1L1383 1818.1L1357 1813.5L1333 1810.5L1309 1808.6L1283 1808L1251 1808.8L1219 1811.4L1176.7 1816.8L1143 1822.3L1105 1829.7L1065.4 1839.1L1030.6 1849.2L1001 1859.9L968.7 1875.1L942.8 1891.2L928.2 1902.6L918.7 1911.2L907.8 1922.6L896.6 1936.5L887.3 1950.2L880.6 1962L873.8 1976.4L868.2 1991L863.5 2006.9L860.7 2021L858.9 2035L858.2 2051L859.6 2073L864 2096L872.1 2119.9L883.5 2143L895.9 2162.4L913.1 2184.3L935.8 2208.1L960.1 2229.8L992.7 2255.1L1031 2281.1L1065.9 2302.2L1105.2 2323L1139 2337.9L1167 2347.5L1195 2353.8L1221 2356.2L1237 2355.8L1253 2353.8L1271 2349.8L1286.5 2344.8L1302.7 2338.3L1320.2 2329.9L1360.2 2306.2L1391.5 2284.9L1423.7 2261.4L1494.7 2206.2L1548.5 2160.7L1624.5 2091.3L1654.6 2066.2L1671 2054.9L1686.2 2046.5L1698.5 2041.4L1713 2037.1L1731 2034.2L1749 2033.4L1769 2034.4L1793 2037.4L1835 2045.3L1971 2076.4L2051 2092.6L2133 2105.6L2169 2109.7L2201.4 2112.2L2233 2113.5L2263 2113.2L2289.2 2111.4L2315 2108L2336.2 2103.6L2360.6 2096.4L2382.2 2087.5L2400 2077.9M324.6 2400L357 2388.6L387 2373.9L399.9 2365.8L415.9 2353.8L425.5 2344.9L433.7 2335.9L439.9 2327.8L448.7 2312.8L453.5 2301L456.6 2289.5L458.1 2277L458.1 2265L456.7 2254L453.4 2241L449.3 2230.3L441.9 2215.9L432.1 2201.6L424.1 2192L415.6 2183.2L399.2 2169.1L374 2152L359.7 2144.2L343.2 2136.6L325 2129.7L307 2124.2L288.5 2119.8L271 2116.9L253 2115.1L235 2114.4L201 2116.4L183.6 2119.2L167 2122.9L151.1 2127.5L133.2 2134.1L103.3 2148.7L87.1 2158.9L75.7 2167.4L55.9 2185.7L45.7 2198.2L39.5 2207.6L33.9 2218.7L28.9 2233L26.6 2245L26.1 2257L27.1 2269L29.6 2281L33.7 2293.3L39 2305L47.9 2320L54.5 2329.1L65.3 2341.7L75.2 2351.6L86 2361L99 2370.7L111.6 2378.8L127.1 2387.3L141.5 2393.8L158.3 2400M2087.1 31.6L2071 36.5L2056.7 42.7L2042.6 50.9L2031.1 59.5L2017.9 72L2009.2 82.6L2000.1 96.1L1992.3 111.5L1986.4 126.9L1982.1 143L1979.3 159L1977.8 175L1977.7 191L1979 209L1981.9 227L1986.3 245L1992.4 263.3L1999.7 280.3L2008 296.1L2017.3 310.9L2030.1 327.9L2040.7 339.8L2055.1 353.3L2069 364L2083 372.9L2099 380.9L2113.2 386.2L2129 390.3L2143.6 392.5L2159 392.9L2174.1 391.6L2189 388.4L2200.7 384.5L2216.8 376.8L2230.9 367.5L2240 360L2255 344.3L2263 333.7L2271.9 319.6L2279.8 303.7L2286.7 285.6L2291.4 269L2294.8 251L2296.6 233L2297 217L2296 200L2293.2 181L2288.1 160.7L2282 143.5L2274.6 127.5L2265.1 111L2256.7 99L2247.9 88.1L2232 72L2209.2 54.7L2198.7 48.4L2182.9 40.7L2167 34.9L2150.8 30.8L2135 28.5L2119 27.8L2103 28.9L2087.1 31.6ZM197.7 63.5L171 68.1L145 75.3L121.1 84.7L101.5 95.1L80.2 110.3L64.9 124.8L49.7 144L40 160L29.8 183.3L22.8 207.4L18.6 233L17.3 261L19.3 291L24.2 319.4L31.3 345.3L42.5 375.2L54.9 401.2L72.8 431.2L90.5 455.8L111.4 480.4L135.4 504.3L157.7 523L182.8 540.7L207.4 554.9L232.3 566.5L257.4 575.3L285 582L313 585.5L341 585.8L367.1 583L392.3 577.2L416.8 568.6L438 558.2L457.7 546L480.2 528.3L496.4 512.7L511.7 495.3L528.5 472.5L543.4 448.4L554.4 427L564.6 403L572.6 379L578.4 355L581.7 331L582.3 309L580.3 287L575.4 265.4L568.8 247L558.2 225.9L545.6 206.7L527.6 184.7L511.4 168.3L489.8 149.6L465.2 131.4L441 116.2L416 102.7L391 91.3L365.2 81.6L337.3 73.2L309 66.9L281 62.9L253 60.9L225 61.1L197.7 63.5ZM935.3 191.5L919.6 199.6L908.2 208.8L902.5 215L896.2 224.3L892 235L890.2 249L892.4 263L895.9 272.1L898.9 277.1L908.9 289.9L916 296.5L925.3 303.2L939.8 311L957 316.9L975.6 320.1L992.3 319.9L1003 318.1L1013 315.2L1021.9 311.4L1029 307.1L1040.8 297.4L1048.1 288.1L1053.5 277L1056.7 266L1057.5 253L1055.9 240.4L1051.6 229L1045.4 218.3L1037.9 209.3L1026.6 199.9L1015.8 193.6L1005 189.3L991 185.7L977 184.2L963 184.7L949 187.2L935.3 191.5ZM1542.9 431.9L1519 433.5L1495 436.9L1469 442.3L1438.9 450.2L1390.6 465.1L1307 492.9L1261 508.7L1224.8 522.4L1181.6 541.9L1161.2 553.2L1144.8 563.6L1127.9 575.9L1113 588.5L1100.1 600.7L1086.8 615.1L1072.7 632.5L1060.7 649.3L1047.4 670.4L1034.9 693L1011.4 742.9L986.3 806.8L970.9 851L956.1 897L944.7 935.9L934.5 975.2L923.1 1029L907.7 1127L900.8 1159L895.4 1175.2L888 1190L880.3 1200.2L871.7 1207.9L856.4 1216.1L845 1219.4L827 1222.2L807 1223.1L765 1221.4L625 1210.3L553 1206.8L511 1206L471 1206.3L437 1207.7L403 1210.3L375 1213.8L349 1218.4L326.3 1223.7L302.6 1231.1L280.5 1240.1L264.4 1248.3L248.2 1258.3L229 1272.9L214.1 1286.8L198.6 1304.2L183.1 1325.7L170.7 1347L160.4 1368.6L151.5 1392.3L144.5 1417.5L140 1443L138.1 1467L138.5 1489L141.1 1511L146 1533L152.5 1552.3L162.4 1573.3L174 1592L185.7 1606.8L200.1 1621.7L213.6 1633.1L232.1 1646L248.6 1655.5L266 1664L287.1 1672.5L311 1680.5L337.1 1687.6L367 1694.1L399 1699.5L432.5 1703.9L467 1707.2L503 1709.4L537 1710.3L571 1710.1L603 1708.5L631 1706L659 1702.1L683 1697.5L707 1691.5L729 1684.6L751 1676L770.9 1666.5L791.2 1655.2L807.3 1644.6L824.3 1632.1L843.3 1616.4L862 1598.8L890.8 1568.3L944.3 1504.6L969.4 1477.8L982.7 1466.9L993.2 1460.3L1006 1454.8L1017 1452.1L1027 1451.1L1039 1451.5L1063.3 1456.3L1093 1466.8L1165 1498.1L1202 1512L1224.7 1518.6L1245 1523.1L1265 1526L1285 1527.5L1319 1526.8L1357 1522L1395 1514.2L1483 1492.6L1525 1483.2L1565 1476.2L1599 1472.6L1617 1472.1L1635 1472.7L1651 1474.3L1669 1477.3L1701 1485.4L1759.4 1504.3L1782.7 1511L1807 1516.2L1831 1518.8L1857 1518.1L1869 1516.2L1881.6 1512.9L1893 1508.7L1903.5 1503.6L1913.3 1497.5L1924.6 1488.7L1935.1 1478.4L1944.8 1466.1L1951.7 1455.1L1958.9 1439.9L1963.2 1427L1966.3 1413L1967.8 1399.6L1968 1385.2L1964.9 1361L1957.5 1334.9L1947.5 1311L1924.2 1263L1915.3 1239L1912 1224.1L1910.9 1215L1910.7 1203L1911.6 1190.6L1914.2 1177L1917.6 1165L1928.5 1137.7L1943.2 1109.6L1985.5 1038.6L2005.7 1001.3L2014.7 982.2L2023.9 959.8L2035.8 923L2041.3 899L2045.1 875L2047.3 851L2047.7 827L2046.4 803L2043.5 781L2038.7 758.8L2031.8 736.3L2022 712.4L2008.4 687.6L1992 664.1L1975.2 644.6L1953.3 623.3L1927.8 602.4L1898.4 581.3L1865.6 560.1L1809.4 526.7L1752.8 495.3L1710 473.6L1672 457L1637 444.8L1605 437L1575 432.9L1542.9 431.9ZM2400 1915L2392.2 1895.7L2383 1879.7L2370.3 1862.3L2350.7 1840.8L2330.9 1822.6L2303.2 1800.9L2279 1784.4L2251.6 1767.7L2223 1752.3L2190.7 1736.9L2159 1724L2127.7 1713.2L2096.3 1704.3L2067 1698.1L2039 1694L2011 1692.2L1989 1692.6L1969.1 1694.7L1949 1698.6L1930.9 1704.1L1912 1712L1896.3 1720.3L1880.4 1730.7L1863.6 1743.8L1846.2 1760.1L1827.4 1781L1812.2 1801.1L1798.6 1822.6L1787 1845L1779.2 1865L1774.2 1885L1772.7 1901L1773.9 1915L1777.3 1927.7L1782 1938L1791.9 1952.1L1806.5 1966.3L1818.9 1975.8L1840.5 1989.2L1861.2 2000.1L1889 2012.6L1919 2024.2L1949 2034.4L1983 2044.5L2017 2053.2L2051 2060.7L2085 2066.9L2120 2072L2175 2076.7L2199 2077.2L2223 2076.7L2245 2075.1L2265.4 2072.4L2285 2068.4L2304 2063.2L2322 2056.5L2338.1 2048.7L2352.2 2040.1L2364.8 2030.3L2376.3 2019L2385.4 2007.8L2393.8 1994L2400 1979.3M1174.1 1863.7L1139 1867.9L1107 1873.5L1074.5 1881.1L1048.1 1889L1022.8 1898.5L998.1 1910.3L978.1 1922.3L959.9 1935.9L943.4 1951.6L929.3 1969.1L920 1984L910.4 2005.4L905 2024.6L902.2 2045L902.4 2065L905.3 2085L911.2 2105.3L920.9 2127L936.2 2151.6L950.3 2169.2L969.7 2189.3L991.7 2208.5L1017.3 2227.4L1047.9 2246.7L1077 2262.1L1107 2275.3L1135 2285.2L1163 2292.6L1189 2296.8L1215 2298.4L1239 2297.2L1265 2293.2L1289.3 2286.7L1315 2277.3L1343.7 2263.8L1369.3 2249.4L1399.8 2229.7L1430.6 2207.4L1459 2184.3L1485.8 2159.9L1509.3 2135.7L1528.8 2112.6L1542.2 2094.3L1555.3 2072.7L1564.6 2053L1570.9 2033L1573.2 2015L1571.9 1999L1567.5 1984.8L1558.4 1969.4L1545.1 1954.9L1530.7 1942.9L1508.5 1928.3L1485 1915.7L1457.3 1903.1L1425 1891L1397 1882.2L1365 1874.1L1335 1868.3L1303.9 1864L1273 1861.4L1241 1860.5L1207 1861.3L1174.1 1863.7ZM190.3 2159.2L173 2165L157 2172.1L141.5 2181.2L127.5 2191.7L118.6 2200.3L107.1 2214.7L101 2225.2L95.6 2239.2L93 2253L92.8 2265L94.8 2278.7L98.1 2289.2L104.7 2303.2L111 2312.8L121.6 2325.3L133.5 2336.1L144.1 2344L159.2 2352.7L175.8 2360.1L191 2365.1L207.4 2369L225 2371.5L243 2372.5L261 2371.9L279 2369.8L297.1 2366.1L314 2361.1L331 2354.4L346.5 2346.4L360.9 2337L371.3 2328.4L381.3 2318L391.5 2303.4L398.3 2287.1L401.2 2271L400.5 2254.3L395.7 2237L387.5 2221L377.2 2207.2L360.8 2191.6L341.6 2178.4L321.3 2168.1L301.9 2161.1L281 2155.9L259 2152.9L235 2152.3L213 2154.4L190.3 2159.2ZM2095.1 87.4L2083 92.7L2073.9 98L2064.6 104.9L2056.7 112.5L2045.1 127.6L2040.2 136.2L2035.6 147L2031.7 159.2L2029.7 169L2028.3 181L2027.9 193L2030.4 217L2037.2 241L2047.9 264.2L2056.3 277L2064.3 287.3L2080.5 303.4L2099 316.4L2109.6 321.9L2120.7 326.3L2141 330.9L2153 331.7L2163 331.1L2174.7 329.1L2183.6 326.5L2200.1 318.7L2208.7 312.9L2218.6 304.2L2232 287.9L2240.3 273L2244.4 263L2248.4 250.4L2250.7 239L2252.6 215L2250.3 191L2247.2 177.7L2243.7 167L2239.5 157L2232.4 143.6L2220.6 127L2205 111.2L2194.4 103L2183.7 96.3L2161.8 87L2151 84.2L2139 82.4L2127 81.9L2117 82.5L2107 84.1L2095.1 87.4ZM238.4 103.9L215 105.7L191 109.9L169 116L149 124L127.8 135.7L113.6 146.2L98.8 160.3L86.2 176L76 193.1L67.5 213L61.4 235L58.1 257L57.4 281L59.4 305L63.8 328.5L71.1 353.5L80 376L93.5 402.5L107.8 425L125.6 448.1L144.5 468.6L164.9 487.2L185.2 502.6L206.9 516.2L231.3 528.6L253.8 537.2L279.5 544.2L301 547.6L325 548.9L347 547.6L368.3 544.1L392.1 537.1L409.9 529.6L425.2 521.3L439.7 511.7L457.8 497L473.6 481L487.6 463.7L498.1 448.2L508.9 429L517.8 409.2L524.8 389L529.7 369L532.6 349L533.5 329L532.4 311L529 291L523.9 273L517.3 256.8L508.9 240.7L497.3 223L485.5 208.2L470.9 192.7L453.5 177.2L435 163.2L416.7 151.3L397 140.4L375.4 130.2L353.3 121.7L331 114.9L307 109.4L285 105.9L263 104.1L238.4 103.9ZM1463.8 495.9L1435 501.6L1399 510.1L1317 533L1256.4 553.7L1231 564.1L1207.2 575.3L1186.6 586.5L1167 598.9L1152 609.9L1135.7 623.5L1119.5 639.2L1104.4 656.3L1091.7 672.8L1080 690L1063.5 718.5L1049.8 746.4L1035.2 781L1022.2 817.2L1010.6 855L1000 896L991.9 935.6L986.6 971L983.7 1001.3L982.6 1033L983.4 1062.9L986.3 1093L990.8 1120.8L997.7 1150.9L1006.3 1178.9L1017 1206.6L1025.6 1225.4L1035.9 1245L1058.1 1279.9L1070.8 1296.9L1088.1 1317.5L1120.8 1350.8L1153.4 1378.6L1172.2 1392.4L1190.8 1404.5L1209.2 1414.9L1225.5 1422.9L1242.9 1430.2L1261 1436.4L1287 1443L1313 1447.2L1343 1449.4L1375 1449.4L1405.4 1447.7L1439 1444.4L1577 1426.4L1607 1424.4L1633 1424.7L1659 1427.6L1685 1433.6L1709.2 1441.7L1768 1464.9L1791.2 1472.1L1807 1475.6L1827 1477.9L1845 1477.8L1863 1475L1879.3 1469.7L1890.5 1464.1L1903.3 1455L1911.5 1447.1L1921 1434.6L1927.2 1422.8L1931.2 1411L1933.8 1397L1934.4 1383L1933.2 1371L1930.8 1359L1922.5 1335.4L1911.4 1313.8L1884.3 1269L1877.9 1256.4L1873.5 1245.3L1870 1233L1867.9 1219L1867.5 1207L1868.7 1193L1874.6 1167L1885.9 1137.3L1902.5 1104L1942.7 1032.1L1962 994.5L1977.2 958.6L1988.9 921L1993.7 899L1996.8 877L1998.1 855L1997.7 833L1995.7 813L1991.9 792.3L1986.5 773L1979.1 753.1L1971.6 737.1L1963.7 723L1944.6 695.6L1923.3 671.6L1897.2 647.4L1865.2 622.5L1823.6 594.7L1777 567L1730.2 542.2L1693 524.8L1657.9 510.9L1625 500.6L1595 493.9L1565 490L1533 489L1499 491L1463.8 495.9ZM422.4 1239.7L385 1245.7L349.6 1254.7L318.8 1266.3L305 1272.9L289.6 1281.6L264.6 1299.5L252.7 1310.1L241.9 1321.3L223.9 1343.9L214.6 1358.6L205.6 1375.5L198.5 1391.8L192.8 1408L188.3 1425L185.4 1441L183.7 1455.9L183.2 1473L183.9 1488.4L186.2 1505L189.9 1521L194.5 1535L200.7 1549.6L206.8 1561.2L216.2 1575.6L223.1 1584.6L235.4 1598L246.9 1608.6L271.7 1626.6L287.1 1635.6L303 1643.5L336.1 1656.7L379 1669L425 1678L475 1683.9L525 1686.4L573 1685.5L613 1681.8L651 1675.2L686.7 1665.7L717.4 1654.1L744.9 1640.3L773.9 1621.3L799.5 1599.7L822.7 1575L834.4 1560.1L846.3 1542.3L857.8 1522.1L866 1504.4L872.3 1487.6L877.6 1469L881 1451L882.5 1433L882.1 1417L879.8 1400.6L875.8 1385L870.1 1370.6L864.4 1359.6L854.6 1345.1L845.8 1334.7L831.1 1320.5L817.6 1310L798.3 1297.6L780.7 1288.2L761.7 1279.6L741 1271.7L716.5 1263.8L688.3 1256.3L663 1250.8L633 1245.5L603 1241.4L571 1238.2L539 1236.1L509 1235.3L479 1235.6L449 1237.1L422.4 1239.7ZM1983.5 1743.8L1960.1 1751.1L1942.7 1758.9L1925.7 1768.8L1905.9 1784L1890.1 1800.1L1878.6 1814.8L1868.7 1831.2L1861 1849.1L1856.5 1866L1855 1883L1855.9 1896.3L1860.2 1913L1868 1928.9L1878.7 1943.7L1894 1958.8L1906.7 1968.8L1929.7 1983.4L1955 1996.2L1983.7 2008.1L2017 2019.1L2051 2028L2087 2035.2L2121.1 2039.8L2155 2042.2L2185 2042.2L2214.1 2039.9L2239 2035.5L2261 2029.4L2281.2 2021.1L2290.7 2016.1L2301.8 2008.9L2312.4 2000.2L2320.1 1992.1L2326.3 1984L2330.8 1976.5L2335.6 1966L2338.7 1955L2340.4 1943L2340.4 1933L2338.9 1921L2336.5 1911L2331.3 1897.1L2326 1886.6L2317.1 1872.5L2297.9 1849.5L2278.2 1830.8L2248.6 1808.3L2216.7 1788.8L2183 1772L2147 1757.7L2111 1747.1L2077 1740.6L2043 1737.8L2013 1738.8L1983.5 1743.8ZM1135.1 1903.7L1096.3 1911.7L1064.3 1921.4L1047.7 1927.8L1031.3 1935.4L1006.4 1950.2L992.9 1960.4L984.2 1968.1L968.1 1986.5L959.5 1999.5L954.8 2008.8L949.9 2021L946.6 2033L944.6 2045L943.9 2055.8L944.4 2069.2L946.1 2081L952.9 2104.1L960.2 2119.8L966 2129.8L982.9 2152.8L993.9 2164.7L1006.6 2176.7L1033.7 2198L1063.4 2216.5L1090.7 2230.1L1119.7 2241.4L1149 2249.8L1175 2254.6L1203 2257L1229 2256.4L1255 2253.1L1281.4 2247L1311 2236.7L1342 2222.2L1369.4 2206.2L1400.3 2184.4L1424.7 2163.9L1446 2142.6L1464.4 2120.3L1480 2096L1490 2072.7L1493.3 2061L1494.9 2051L1495.5 2041L1495 2031L1493.2 2021L1490.1 2011L1486.2 2002.2L1480.1 1991.9L1465.8 1975L1448.3 1959.9L1423.7 1944.1L1392.1 1928.9L1361 1917.7L1325 1908.2L1289 1901.9L1251 1898.1L1213 1897.2L1173 1899.1L1135.1 1903.7ZM221.5 2199.1L211 2202L199.8 2206.4L183.9 2215.9L174.6 2224.3L168.1 2232.1L164.3 2239.1L160.7 2248.1L159.2 2255.6L159 2263L160 2272L166.6 2287.9L173.8 2297.4L181.8 2305.1L191.7 2312.1L208.1 2320L227 2324.9L245 2326.8L267 2325.3L288.2 2320.2L305.1 2312.4L318.9 2302.4L327 2293.8L333.7 2283L337 2274L338.4 2263L337.4 2253L334 2242.8L328 2232L320.6 2223.6L311.8 2216.1L299.3 2208.5L287 2203.2L276.1 2199.8L263 2197.4L249 2196.4L235 2197L221.5 2199.1ZM240 144L219 146.7L198.8 151.4L181 157.7L165.2 165.4L150.8 174.6L137.2 186L124.9 199.6L114.7 214.7L106.8 230.9L101.4 247L97.9 263L96 281.4L96.3 301.1L98.8 321L104.1 343.8L110.5 362.2L120.2 383.4L129 399L140.9 416.5L154.5 433.3L168.3 447.8L185.7 463.2L206.6 478.3L224.3 488.7L240.4 496.4L262.8 504.6L283 509.6L303.4 512.5L323 513.1L343.5 511.4L363 507.4L381 501.4L392.8 496.2L407.9 487.9L423.5 476.8L437.8 463.9L447.7 453.1L457.9 440L467.4 424.8L475.4 409L481.8 392.5L486.1 377L489.1 361L490.6 343L490.3 327L488.4 310.9L484.7 295L479.8 280.3L472.3 263.7L463.6 249L455.2 237.1L443.7 223.4L430.5 210.3L416.9 198.8L399.7 186.5L384.2 177.1L367.4 168.5L350.1 161.2L331 154.6L313 149.8L295 146.4L277.7 144.3L259 143.4L240 144ZM2118.8 158.9L2111.4 164L2105.2 170.6L2101.3 177.3L2097.8 187L2096.3 197L2096.9 207L2099.4 217L2103.3 226.3L2108.7 234.5L2114.5 241L2123.1 247.7L2133 252.4L2143 254.7L2151 254.7L2159 253.1L2167.8 249.2L2175 243.5L2179.1 238.7L2183.6 231.5L2187 221L2188.2 213L2187.9 203L2185.5 191.6L2182.5 184.1L2177.1 175.2L2169.7 167.1L2160 160L2155 157.9L2145 155L2137 154.4L2129 155.3L2118.8 158.9ZM1455.5 543.9L1425 548.3L1393 554.1L1360.6 561.3L1330.3 569L1304 576.8L1277 585.9L1253 595.3L1231.3 605.2L1211.7 615.6L1194.1 626.3L1175.5 639.4L1160.6 651.6L1146.2 665.3L1133 679.6L1119.9 695.9L1108 713L1094.8 734.8L1081.2 761.6L1069.6 789L1059.5 817L1050.6 847L1043.4 877L1037.5 909L1033.7 939L1031.8 967.5L1031.7 995L1033.2 1021L1036.4 1047L1041.2 1071.4L1047.8 1096.3L1055.9 1120.1L1066.3 1145.3L1086.4 1184L1108.6 1218.9L1136.6 1255.6L1167.2 1289.3L1183.5 1304.8L1200.4 1319.4L1231.9 1342.5L1263.3 1360.6L1279.7 1368.2L1297.4 1375.2L1327.4 1384.2L1355 1389.9L1387 1393.8L1421 1395.4L1453 1395L1489 1392.8L1615 1379.8L1641 1379L1663 1380.1L1687.5 1384.2L1707 1390.1L1726.6 1398.5L1776.9 1423.3L1800.8 1431.9L1817 1435.1L1833 1435.9L1849 1433.9L1861 1429.8L1871.6 1423.8L1879.5 1416.7L1887.2 1405.5L1890.1 1398.8L1892.4 1389L1893 1379L1892 1369L1887.5 1352.8L1879.4 1336.6L1869.6 1321.9L1843.4 1287.3L1835.7 1275L1830.8 1265.5L1826.3 1253L1823.6 1241.2L1822.5 1227L1823.1 1213L1825.2 1198.9L1828.4 1185L1839.8 1151.8L1857.3 1113.6L1899.3 1032.9L1916.6 997L1931.9 959L1942.1 925L1946.5 903L1949 883L1949.9 863L1949.2 843L1947 825L1943.1 806.6L1936 784.1L1929.7 769.4L1915.4 743.3L1898.5 719.8L1878.1 697.2L1853.9 675L1826.1 653.4L1792.9 631.1L1752.5 607.5L1715 588.5L1680.8 573.5L1647.7 561.2L1616.1 552L1585 545.4L1555 541.5L1523 539.9L1491 540.7L1455.5 543.9ZM469.6 1263.7L433 1267.4L400.7 1273.3L370.9 1281.6L343 1292.6L320.4 1304.4L296.7 1321L288.1 1328.2L273.8 1342.5L258.2 1361.9L249.2 1375.9L243.2 1387L236.9 1401.1L231.7 1415.5L225.4 1443L223.4 1469L225.6 1495L231.9 1520.2L242.2 1543.6L248.7 1554.7L258.3 1567.8L274.3 1585.1L297.2 1603.7L319.9 1617.7L351 1632.2L383 1643.2L417 1651.8L455 1658.3L493 1662.1L531 1663.3L569 1661.9L605 1657.7L637 1651.3L667 1642.4L694.9 1631.1L721.6 1616.6L744.7 1600.3L758 1588.8L770.6 1576.2L784 1560L793.9 1545.7L803.4 1528.9L810.6 1512.8L816.2 1496.4L819.8 1481L821.9 1465L822.2 1449L820.8 1433L817.6 1417.2L812.2 1401L805.5 1386.8L799 1375.8L787.9 1360.9L777.5 1349.5L764.6 1337.7L752 1328L737.5 1318.4L720.7 1309L702.9 1300.5L683 1292.5L662.9 1285.7L641 1279.6L617 1274.1L569 1266.6L519 1263L493 1262.8L469.6 1263.7ZM2031.7 1783.9L2015 1787.3L1999.5 1791.9L1983 1799.1L1968.1 1808L1955.7 1818.1L1943.6 1831.2L1937 1841.1L1930.5 1854.9L1927.1 1867L1925.8 1881L1927.2 1894.6L1930.3 1905.1L1936.9 1919L1943.4 1928.4L1955.8 1941.8L1967.9 1952L1982.3 1961.7L2003 1973L2024.5 1982.2L2045 1989.3L2065 1994.8L2089.1 1999.9L2113 2003.2L2137 2004.8L2159 2004.7L2179 2003.1L2198.4 1999.8L2215 1995.1L2223.9 1991.9L2239.9 1983.9L2252.9 1974.3L2264 1962.3L2270.9 1950.4L2275.2 1935L2275.5 1919L2272.2 1903.6L2264.9 1887.1L2255.4 1872.5L2240.6 1855.6L2222.7 1839.8L2200 1824L2177.1 1811.4L2151.8 1800.2L2127.8 1792.1L2103 1786.3L2079 1782.9L2055 1782.1L2031.7 1783.9ZM1141.1 1935.2L1113 1941.1L1087 1949.1L1062.9 1959.1L1042.5 1970.7L1024.3 1984.2L1008.6 2000.5L998.8 2014.8L991.1 2032L986.8 2051L986.6 2071L990.5 2090.8L999.2 2111.7L1008.8 2127.3L1023.3 2145.1L1039.6 2160.6L1063.7 2178.5L1082.6 2189.7L1104 2200L1128 2208.9L1153 2215.6L1179 2219.9L1203 2221.4L1227 2220.5L1251 2217.3L1275 2211.5L1299 2203.2L1321.3 2193.1L1344.8 2179.7L1365.7 2165.1L1384.9 2148.7L1402.8 2129.9L1416.1 2112.1L1425.7 2094.6L1432.9 2074L1435.2 2055L1433.3 2037L1430.2 2027L1425.9 2017.4L1415.9 2002.3L1401.1 1987L1385.1 1974.8L1359.5 1960.4L1337.5 1951.1L1307 1941.6L1275 1934.9L1241 1930.8L1207 1929.6L1173 1931.1L1141.1 1935.2ZM247.4 183.9L231 186.5L217.2 190.1L206.7 193.8L192.6 200.5L181.2 207.8L169.2 217.9L159.6 228.4L151.3 240.3L143.8 255.7L139.5 269L136.7 283L135.5 299L135.9 312.5L138.7 331L142.7 346.4L148.9 363L156.8 379L166.8 395L176.3 407.8L190.9 423.7L200 432L216.6 444.8L232 454.4L245 461L261 467.4L278.8 472.5L295 475.2L309 476.2L325 475.8L339 473.9L353.2 470.4L368.8 464.6L383.7 456.9L392.4 451.1L402.2 443.3L411.6 434.2L426 416.1L432.5 405.1L439.2 390.7L443.7 377L446.5 365L448.1 352.8L448.6 339L448 328.1L445.5 313L442.3 301L437.7 288.7L432.1 277.2L424.1 263.9L407.5 243.4L396.3 232.5L385.2 223.5L360.8 207.8L344.6 199.9L333 195.3L305 187.3L277 183.4L263 183L247.4 183.9ZM1406.2 591.6L1354.6 601L1309 613L1287 620.4L1267 628.3L1247.4 637.3L1230.3 646.3L1215.4 655.4L1200.1 666.1L1183.6 679.4L1171.9 690.3L1159.3 703.5L1145.9 720L1135.1 735.2L1126 749.9L1114.7 771L1105.2 792L1096.1 816.1L1089.5 837L1083.4 861L1078.6 885L1075.2 909L1073.2 933L1072.5 957L1073.2 979L1075.2 1001L1078.6 1022.9L1083.4 1045L1089.2 1065.3L1096.7 1086.9L1106.1 1109.2L1125.5 1146.5L1137.8 1166.3L1150.7 1185.1L1179.7 1221.5L1209.9 1253L1240.4 1279.4L1255.7 1290.7L1273.5 1302.5L1290 1312L1309.7 1321.8L1326.6 1328.9L1345.1 1335.4L1381.5 1344.9L1417 1350.3L1455 1352.7L1496.4 1352L1541 1348L1595 1340L1708 1320.1L1723 1316.4L1735.4 1311.8L1745.2 1304.7L1752.6 1294L1758 1279L1773.1 1223L1787.5 1183L1808.1 1136.2L1850.3 1050.8L1866.3 1016.5L1879.8 983.7L1890.7 951L1896.3 928.8L1900.1 907L1901.9 887L1902.1 867L1900 845L1895.9 824.4L1890.6 807L1884 791L1871.8 768.2L1855 744.7L1832.3 719.8L1809.1 699.2L1783.7 680.1L1749.6 658.4L1714.3 639.3L1680.3 623.8L1647 611L1614.1 600.9L1581 593.2L1549 588.3L1515 585.6L1481 585.2L1445 587.1L1406.2 591.6ZM431.7 1295.9L400.3 1303.5L376.3 1312.1L354.6 1322.4L334 1335.2L312.8 1352.5L297.5 1369.1L283.6 1389L273.7 1408.4L266.1 1431L262.2 1453L261.7 1475L264.8 1497.3L272 1520L280 1536L287.6 1547.6L296.5 1558.9L313.1 1575.4L335 1591.8L353.3 1602.3L379 1614L408 1624L440.4 1631.9L473 1637L507 1639.7L541.3 1639.8L573 1637.5L602.5 1632.8L632.4 1625.4L656.9 1616.6L679.7 1605.8L702.8 1591.5L721.3 1576.7L737 1560.7L744 1552L754.6 1536.3L762 1522.4L767 1510.4L771.2 1497L774.1 1483L775.5 1469L775.3 1455L773.6 1441L770.9 1429L766.6 1416.3L760 1402.1L753.3 1390.9L743.9 1378.3L735.2 1368.5L725.2 1359.1L712.5 1348.8L697.3 1338.4L669 1323.2L635 1309.8L597 1299.5L555 1292.5L513 1289.6L471 1290.8L431.7 1295.9ZM2055.8 1839.9L2037 1847.1L2024.1 1856.1L2016.5 1865.4L2013.5 1871.4L2011.2 1879L2011 1891L2015.2 1904.8L2020.2 1912.6L2025.6 1918.9L2039.7 1930.7L2048 1936L2063.7 1943.5L2081 1949.2L2103 1953.8L2125 1955.1L2147 1953.2L2153.4 1951.9L2165 1948L2173.7 1943.9L2179 1940.1L2184.1 1936.1L2189.2 1929.2L2192.9 1921.4L2194.3 1913L2193.8 1905.1L2191.2 1895.9L2186.8 1887.6L2180.6 1879.1L2173 1871.2L2160.3 1861.3L2152.1 1855.9L2136 1848L2110.8 1840.2L2097 1837.9L2083 1837.1L2069 1837.7L2055.8 1839.9ZM1144 1968L1121.2 1973.9L1103 1980.4L1085 1989.1L1070.5 1998.2L1057.6 2009L1046.8 2021.4L1040.1 2032.1L1034.3 2047L1032.2 2057.6L1032 2072.1L1035.5 2089L1041.7 2103.8L1051.6 2119.2L1063.2 2132.5L1076.6 2144.3L1093 2155.7L1112.3 2166.2L1129 2173.2L1147 2179L1166.7 2183.4L1185 2185.7L1205 2186.5L1223 2185.5L1241.2 2183L1261 2178.4L1279 2172.3L1297.1 2164.3L1314.5 2154.6L1329.1 2144.5L1344.4 2131.2L1355.6 2118.9L1365.3 2105.3L1373.2 2089L1377.4 2073L1377.9 2057L1374.8 2042.4L1369.5 2030.5L1359.5 2016.3L1351.6 2008.2L1344 2002L1330.4 1992.8L1313 1983.7L1292.4 1975.7L1269 1969.3L1245 1965L1221 1962.7L1195 1962.3L1169 1964.1L1144 1968ZM239.9 231.9L220.6 240.5L209.1 248.6L202.5 254.9L195.8 263.1L190.8 270.8L183.8 287.6L181.5 299L180.6 309L180.8 319L182.3 331L184.9 342L188.9 353L191.9 360.2L200.7 375.4L214.6 392.9L231.7 408.3L242.8 415.8L255.9 422.9L278.7 431L289.2 433.1L301 434.2L313 434.1L323 433L333.2 430.8L342.9 427.5L351.6 423.7L361.5 417.8L374.5 407.1L385.8 393.6L394 378.7L400.1 360.2L401.9 341L399.8 320.7L394.3 303.4L385.5 286.6L375 272.7L358.3 256.8L342.6 246.1L321 235.8L301 229.9L279 227.1L259 227.9L239.9 231.9ZM1390 631.5L1349.3 639L1312.1 649L1277.5 662.1L1247.5 677.2L1231.4 687.3L1218 696.9L1207.8 705.3L1192.6 719.5L1173.2 741.8L1156 767L1147.2 782.8L1139.4 798.9L1126.9 831.8L1117.2 869L1113.8 889L1111.4 909L1110.2 947L1113.1 985L1116 1003L1120.4 1023L1131 1057L1146.4 1093.1L1165.9 1128.2L1188.2 1160.8L1214.7 1192.9L1243.6 1222L1273.2 1246.5L1303.5 1267L1335 1283.7L1367.1 1296.5L1401 1306L1438.8 1312.2L1475 1314.5L1515 1313.2L1555 1308.2L1595 1299.6L1632.1 1288L1657.2 1277.1L1679.6 1263.9L1697 1249.6L1713.3 1231.8L1729.3 1209.2L1752 1170.2L1783.5 1110.3L1809.7 1056.2L1825.8 1018.7L1838.1 985.2L1847.2 953.4L1852.3 927L1854.9 899L1854.2 873L1850.5 849L1843.4 825L1832.1 799.9L1817 776.3L1800.5 756.4L1780.2 736.6L1755 716.4L1726.6 697.4L1695.7 680.3L1663.8 665.5L1631 652.9L1599 643.1L1565 635.1L1531 629.8L1497 626.7L1461 626L1425 627.6L1390 631.5ZM461.3 1319.4L435 1324.2L411 1331.1L389 1340L368.4 1351.3L352.3 1362.7L337.1 1376.7L324.7 1391.5L314.1 1408.3L306 1427L301.2 1445L299.3 1465L300.4 1483L304.9 1502.2L312.3 1519.7L322.3 1535.8L336 1552L353 1566.7L367.4 1576.6L389 1588.3L411 1597.4L435 1604.9L459 1610.3L485 1614.1L513 1616L541 1615.6L567 1613.2L593.2 1608.5L614.9 1602.5L638.6 1593.5L656.6 1584.5L672.2 1574.6L690.1 1560L705.2 1543.7L711.6 1535L720.3 1520.3L725.2 1509L729.3 1496.4L731.9 1483L732.9 1471L732.5 1459L730.8 1447L727.9 1435.3L724 1425L719.9 1416.1L711.8 1402.8L696.1 1383.9L678 1368L665.7 1359.4L652.6 1351.5L623.4 1338L592.6 1327.9L559.3 1320.9L527 1317.3L493 1316.7L461.3 1319.4ZM1198.8 2000L1171 2002.3L1144.8 2008.4L1131 2014L1122.5 2018.4L1112.9 2024.4L1104 2032L1096.7 2040.7L1092.8 2047.3L1089.7 2054.8L1087.7 2063.1L1087.4 2070.8L1088.2 2079L1090.6 2087L1095.2 2096.8L1100.5 2104.5L1107.8 2112.6L1116.6 2120.3L1127.9 2128L1149 2137.8L1174.2 2144.6L1187 2146.2L1201 2146.8L1226.2 2144.6L1251 2138.1L1272.6 2128.2L1285.2 2119.7L1294.9 2111.3L1304.4 2099.7L1310.8 2087.9L1313.6 2078.8L1314.5 2067L1312.8 2056.1L1308.8 2046.9L1304.4 2039.7L1295.8 2030.5L1287.9 2024L1269 2013.6L1255 2008.2L1235 2003.3L1217 2000.7L1198.8 2000ZM271.6 295.8L263.5 300.3L257.7 305.3L253.6 311.6L251.2 319L250.5 327L251.7 335L255.4 344.7L259.9 351.1L270.9 361.3L280.6 366.2L288.1 368.5L297 369.1L304.7 368.3L311.4 365.9L320.3 360.5L327.7 350.7L329.7 344.6L330.7 337L330 329.1L327.7 321.2L321.3 311.1L312.8 303L303.6 297.8L297.1 295.4L285 293.9L271.6 295.8ZM1367 671.7L1334.5 679.3L1304.2 689.4L1288.2 696.1L1272.3 704.1L1248.3 719L1226.8 736.3L1208.3 755.1L1192 776L1177 801.2L1164.7 829L1155.3 859L1149.1 891L1146.5 923L1147.3 955L1151.3 986.3L1158.9 1018.3L1170.3 1051L1183.8 1080.2L1202.3 1111.8L1224.6 1142.8L1246.9 1168.7L1271.5 1192.8L1297.5 1214.1L1325.5 1232.9L1352.9 1247.7L1383 1260.2L1415 1269.6L1447 1275.4L1479 1277.9L1511 1277.2L1544.7 1273.1L1576.7 1265.7L1606.8 1255.2L1632.5 1242.7L1655.1 1228L1673 1213L1693.1 1191.6L1711.7 1167.2L1730.2 1138.2L1750.4 1102.1L1768.5 1064.7L1782.4 1031.6L1793.8 998.8L1802.2 967L1806.9 939L1808.7 913L1807.3 886.9L1802.8 863L1794.9 839.1L1783.6 816.4L1771 797.7L1752.1 775.9L1735.4 760.3L1712.9 742.9L1686.6 726.1L1657.6 710.7L1623.8 696.1L1593 685.5L1561 676.9L1529 670.6L1497 666.5L1463 664.4L1431 664.6L1399 667L1367 671.7ZM447.9 1352L427 1358.5L411 1365.3L392 1376L382.2 1383.2L370.6 1393.6L359 1407.2L352 1418L344.8 1433.4L340.5 1449L339 1463L339.8 1479L342.9 1493L348.4 1507L355.3 1519.2L364 1530.7L376.8 1543.6L389.2 1553.2L405 1562.9L421 1570.6L441.2 1578.1L463.5 1584.1L483 1587.4L505 1589.6L527 1589.9L549 1588.4L569 1585.4L587 1581.1L606.1 1574.7L622.3 1567.5L637.1 1558.8L648.3 1550.7L664 1536L676.4 1519L680.5 1511.6L685.6 1499L689.6 1481L690.2 1471L689.6 1461L685.7 1443L677.5 1424.5L672.1 1415.9L665.3 1407.1L649.3 1391.3L630.3 1377.7L609.7 1366.7L585 1357.2L557 1350.1L529 1346.1L501 1345.2L475 1347L447.9 1352ZM1398.6 703.7L1369 708.2L1341 715.1L1315 724.3L1290.4 736.1L1265.8 752L1247.6 767.4L1232.1 784.1L1218.6 802.4L1206.4 823.9L1195.3 851L1188.2 877L1184 903.8L1182.7 931L1184.3 958.1L1188.6 985L1196.1 1013L1206.8 1041.6L1220.2 1069L1237 1096.5L1254.9 1120.8L1275.9 1144.7L1298.7 1166.6L1320.2 1183.9L1349.1 1202.9L1375.3 1216.6L1401.1 1226.9L1429 1234.9L1456.8 1239.8L1485 1241.9L1513 1240.9L1541 1236.9L1567.3 1230.2L1593 1220.3L1616.2 1208.2L1634.7 1195.5L1653.3 1179.8L1672.1 1160.1L1688.3 1139.4L1704.8 1114.3L1719.8 1087.7L1734.7 1055.9L1745.8 1027L1754.7 997L1760.4 969.4L1763.2 943L1763.1 919L1760.3 895.2L1754.5 873.1L1746.5 853L1735.5 833.3L1722.7 815.8L1708.8 800.4L1690.5 783.9L1670.9 769.2L1647.5 754.7L1625.2 743L1597 730.9L1569.3 721.3L1541 713.5L1513 707.8L1484.7 703.9L1455 701.8L1427 701.8L1398.6 703.7ZM463 1383.5L439.6 1391.9L424.5 1400.2L414.7 1407.4L406.4 1415L399.2 1423.4L393 1433.1L387.8 1445L385.2 1455L384.1 1467L385.3 1479L388 1489L392.5 1499.4L400.2 1511.5L407.9 1520.1L416.3 1527.6L428.7 1536.2L440.1 1542.4L464.3 1551.9L479 1555.5L495 1558.1L511 1559.3L525 1559.3L541 1558L555 1555.7L568.6 1552.3L582.9 1547.2L591.3 1543.4L604.7 1535.7L615.3 1527.6L623.7 1519.4L633.6 1505.6L638.9 1494.1L642.2 1481L642.6 1467L640.6 1454.8L634.6 1439.6L624 1424L615.6 1415.3L599.4 1403L583.5 1394.2L565 1386.9L547 1382L525 1378.7L505 1377.9L483 1379.6L463 1383.5ZM1383.6 743.9L1359 749.5L1337.1 756.8L1314.1 767.3L1297.4 777.5L1279.6 791.4L1263.8 807.5L1251 824.5L1241.1 841.4L1231.7 863.5L1226 883L1222.1 905L1220.6 929L1221.7 953L1225 975.4L1231.5 1001L1239.8 1024.2L1250.7 1047.4L1264.6 1071.4L1280.2 1093.4L1295.9 1112.2L1319.4 1135.6L1337.3 1150.4L1361.2 1166.8L1383.2 1179.1L1406.9 1189.4L1431 1197.1L1455 1202.1L1479 1204.6L1503 1204.5L1527 1201.8L1549 1196.7L1571 1189L1590.8 1179.3L1608.3 1168.4L1625.8 1154.6L1641.8 1139.2L1657.2 1121L1671.7 1100.4L1684.2 1078.9L1695.5 1055.3L1704.3 1032.5L1711.7 1007.3L1716.5 983L1718.7 961L1718.6 939L1716.3 919L1711.2 897.5L1704.8 880.2L1696.4 863.6L1686.1 848L1672.6 831.6L1656.3 815.8L1639.7 802.6L1624 792L1599.6 778.3L1576.8 767.8L1553.6 759.1L1528.8 751.7L1503 745.9L1479 742.1L1455 740L1431 739.5L1407 740.8L1383.6 743.9ZM477.9 1430.5L472.9 1432.8L463.3 1439.1L455.6 1447.1L450.4 1457L448.5 1465L448.4 1471L449.6 1477L454.5 1487.9L462.3 1496.9L471.8 1504.1L486.7 1510.6L497.2 1513.4L513 1515L529 1514L542 1510.9L556.3 1504.4L567.3 1495.5L572.1 1488.8L576.5 1478.5L577.2 1471L576.2 1463L573.7 1456.7L568.3 1447.8L560.2 1439.9L553.2 1435.4L545.1 1431.2L535 1427.7L525 1425.4L515 1424.2L497 1425.1L487 1427.3L477.9 1430.5ZM1391.8 783.9L1371 789.1L1353 795.6L1335.1 804.4L1319.1 814.9L1305.6 826.5L1294.3 838.8L1283.1 854.8L1275.6 869L1268.7 887L1264.3 905L1262.1 923L1261.8 943L1263.5 962L1267.7 983L1272.7 1000.1L1281.5 1022L1291.4 1041.2L1304.8 1062.2L1319.1 1080.7L1333.4 1096.2L1351.1 1112.4L1368.3 1125.5L1384.2 1135.8L1403 1145.6L1421.7 1153.4L1441.4 1159.4L1463 1163.6L1483 1165.3L1503 1164.8L1523 1162L1541 1157.4L1559.7 1150.2L1574.5 1142.6L1590.9 1131.8L1605.4 1119.8L1616.7 1108.5L1628 1095.1L1639.5 1078.6L1648 1063.9L1657.8 1042.6L1664.3 1024.5L1669.2 1005L1672.3 985.4L1673.3 969L1672.6 951.2L1670 933L1665.8 917L1659.6 901L1652.3 886.8L1642.4 871.9L1630.9 858L1619.2 846.3L1605.6 835L1590 824L1575.6 815.5L1553 804.4L1534.9 797.3L1514.6 790.8L1493 785.6L1473 782.3L1451 780.3L1431 780L1411 781.2L1391.8 783.9ZM1398.2 831.2L1383 836.1L1370.1 841.8L1359.6 847.8L1346.8 857.5L1336.5 867.7L1327.7 879.2L1320.9 891.1L1316 903L1311.7 918L1309.8 931L1309.2 945L1310.2 961L1312.8 975.8L1317.6 992.9L1324 1009L1331.2 1023.2L1341.9 1040.1L1352.2 1053.5L1361.7 1064.1L1376.2 1077.6L1389.6 1088.1L1401.8 1096L1416.2 1103.8L1433.6 1111.1L1449 1115.7L1465 1118.8L1479.1 1120.1L1494.5 1119.9L1509 1118L1525 1114.2L1537.2 1109.7L1550.9 1103L1561.2 1096.5L1573.6 1086.7L1582.7 1077.8L1592.2 1066.7L1599.9 1055.6L1608.2 1040.6L1616.9 1017.7L1620 1005L1622.1 991L1622.8 977L1622.1 963L1619.9 949L1616.3 935.6L1606.6 913.6L1600.5 903.6L1591.5 891.8L1581.8 881.3L1571.2 871.7L1560.5 863.4L1547.2 854.9L1535 848.3L1518.5 841L1488.9 831.6L1473 828.5L1457 826.6L1441 826L1427 826.5L1413 828.2L1398.2 831.2ZM1445 887.7L1427 890.4L1409.3 897.1L1396.1 906.2L1390.8 911.2L1384 919.9L1376.7 936L1374 951L1374.7 969L1378.6 985L1382.9 995.9L1387.8 1005L1400.7 1022.7L1416.4 1037.2L1432.4 1047.7L1450 1055L1467 1058.6L1485 1059L1503.1 1055.6L1519.9 1048L1529.6 1040.8L1540.5 1029.2L1544.2 1024.2L1549.1 1015.1L1554.2 1001L1556.6 985L1555.7 969L1551.5 952.8L1543.7 936.9L1536.5 927.1L1522.2 913.1L1510.2 904.6L1494.9 896.8L1479 891.4L1462.5 888.2L1445 887.7Z" fill="none" stroke="#000" stroke-width="1.15" stroke-linejoin="round" stroke-linecap="round"/></svg>
